<?xml version="1.0" encoding="UTF-8" standalone="no"?>
<!-- Created with Inkscape (http://www.inkscape.org/) -->

<svg
   width="1102"
   height="75"
   viewBox="0 0 291.57083 19.843751"
   version="1.1"
   id="svg1"
   sodipodi:docname="hero-text.svg"
   inkscape:version="1.3.2 (091e20ef0f, 2023-11-25, custom)"
   xmlns:inkscape="http://www.inkscape.org/namespaces/inkscape"
   xmlns:sodipodi="http://sodipodi.sourceforge.net/DTD/sodipodi-0.dtd"
   xmlns="http://www.w3.org/2000/svg"
   xmlns:svg="http://www.w3.org/2000/svg">
  <sodipodi:namedview
     id="namedview1"
     pagecolor="#ffffff"
     bordercolor="#000000"
     borderopacity="0.25"
     inkscape:showpageshadow="2"
     inkscape:pageopacity="0.0"
     inkscape:pagecheckerboard="0"
     inkscape:deskcolor="#d1d1d1"
     inkscape:document-units="mm"
     inkscape:zoom="0.54362802"
     inkscape:cx="663.13727"
     inkscape:cy="425.84266"
     inkscape:window-width="1920"
     inkscape:window-height="1043"
     inkscape:window-x="0"
     inkscape:window-y="0"
     inkscape:window-maximized="1"
     inkscape:current-layer="layer1" />
  <defs
     id="defs1" />
  <g
     inkscape:label="Layer 1"
     inkscape:groupmode="layer"
     id="layer1">
    <path
       style="font-weight:bold;font-size:19.8438px;font-family:Inter;-inkscape-font-specification:'Inter Bold';fill:#f9f9f9;stroke-width:1.32292"
       d="m 27.66766,6.1412644 h -3.0865 Q 24.496598,5.542286 24.235866,5.077197 23.975135,4.6050611 23.56642,4.2738613 23.157705,3.9426616 22.622148,3.7664915 22.093638,3.5903214 21.473519,3.5903214 q -1.120442,0 -1.951964,0.5566975 -0.831523,0.5496507 -1.289565,1.6066713 -0.458043,1.0499737 -0.458043,2.5509429 0,1.5432501 0.458043,2.5932239 0.465089,1.049974 1.296611,1.585531 0.831523,0.535557 1.923778,0.535557 0.613072,0 1.134535,-0.162077 0.528511,-0.162076 0.937225,-0.472135 0.408715,-0.317107 0.676493,-0.768102 0.274826,-0.450996 0.380528,-1.028833 l 3.0865,0.01409 q -0.119796,0.9936 -0.598978,1.916731 -0.472136,0.916084 -1.275472,1.641905 -0.796289,0.718774 -1.902637,1.141582 -1.099301,0.415762 -2.487522,0.415762 -1.930824,0 -3.452934,-0.873804 Q 16.435055,13.970263 15.554204,12.314265 14.6804,10.658266 14.6804,8.3046331 q 0,-2.3606792 0.887898,-4.0166781 0.887897,-1.6559989 2.410007,-2.5227558 1.522109,-0.87380369 3.424746,-0.87380369 1.254331,0 2.325446,0.35234019 1.078161,0.3523402 1.909683,1.0288334 0.831523,0.6694463 1.352987,1.6419053 0.52851,0.9724589 0.676493,2.22679 z M 29.802838,15.52056 V 4.6966696 h 2.91033 V 6.585213 h 0.112749 q 0.295966,-1.0076929 0.993599,-1.5221096 0.697634,-0.5214635 1.606671,-0.5214635 0.225498,0 0.48623,0.028187 0.260732,0.028187 0.458042,0.077515 v 2.6636918 q -0.211404,-0.063421 -0.584885,-0.1127489 -0.37348,-0.049328 -0.68354,-0.049328 -0.662399,0 -1.183863,0.288919 -0.514416,0.2818721 -0.817429,0.789242 -0.295966,0.5073699 -0.295966,1.1697694 V 15.52056 Z m 12.536257,0.211404 q -1.670092,0 -2.875096,-0.676493 -1.197956,-0.68354 -1.846262,-1.930824 -0.648306,-1.254331 -0.648306,-2.966704 0,-1.670093 0.648306,-2.9314708 0.648306,-1.2613779 1.825122,-1.9660583 1.183863,-0.7046804 2.776441,-0.7046804 1.071114,0 1.994245,0.3452934 0.930178,0.3382466 1.620765,1.0217865 0.697634,0.68354 1.085208,1.7194202 0.387574,1.0288333 0.387574,2.4100064 v 0.824477 H 38.167387 V 9.0163603 h 6.313937 q 0,-0.6483059 -0.281873,-1.148629 -0.281872,-0.5003231 -0.782195,-0.7821952 -0.493276,-0.288919 -1.148629,-0.288919 -0.68354,0 -1.21205,0.3171062 -0.521464,0.3100594 -0.817429,0.8385696 -0.295966,0.5214635 -0.303013,1.1627227 v 1.7687474 q 0,0.803336 0.295966,1.388221 0.303012,0.584884 0.852663,0.901991 0.549651,0.317106 1.303659,0.317106 0.500323,0 0.916084,-0.140936 0.415762,-0.140936 0.711728,-0.422809 0.295965,-0.281872 0.450995,-0.690586 l 2.776441,0.183217 q -0.211404,1.000646 -0.866757,1.747607 -0.648306,0.739914 -1.677139,1.155676 -1.021787,0.408714 -2.36068,0.408714 z m 10.013509,-0.007 q -1.03588,0 -1.846262,-0.359387 -0.810383,-0.366434 -1.282519,-1.078161 -0.465089,-0.718774 -0.465089,-1.789889 0,-0.90199 0.3312,-1.515062 0.3312,-0.613072 0.901991,-0.9865529 0.570791,-0.3734806 1.296612,-0.5637443 0.732868,-0.1902637 1.536203,-0.2677786 0.944272,-0.098655 1.52211,-0.1832169 0.577838,-0.091608 0.83857,-0.2677785 0.260731,-0.1761701 0.260731,-0.5214635 v -0.042281 q 0,-0.6694464 -0.422808,-1.0358802 -0.415761,-0.3664338 -1.183863,-0.3664338 -0.810382,0 -1.289565,0.359387 -0.479183,0.3523402 -0.634212,0.8878973 L 49.139262,7.769076 q 0.211404,-0.9865525 0.831523,-1.7053265 0.620118,-0.7258208 1.599624,-1.113395 0.986553,-0.394621 2.283165,-0.394621 0.90199,0 1.726467,0.2114041 0.831522,0.2114041 1.472782,0.6553528 0.648305,0.4439486 1.021786,1.1415822 0.373481,0.6905868 0.373481,1.6559989 V 15.52056 h -2.846909 v -1.500969 h -0.08456 q -0.260731,0.50737 -0.697633,0.894944 -0.436902,0.380528 -1.049974,0.598978 -0.613072,0.211405 -1.416408,0.211405 z m 0.85971,-2.071761 q 0.6624,0 1.16977,-0.260731 0.50737,-0.267779 0.796289,-0.718774 0.288919,-0.450996 0.288919,-1.021787 v -1.148629 q -0.140936,0.09161 -0.387575,0.169123 -0.239591,0.07047 -0.542603,0.13389 -0.303013,0.05637 -0.606026,0.105702 -0.303012,0.04228 -0.54965,0.07751 -0.528511,0.07752 -0.923132,0.246639 -0.394621,0.169123 -0.613071,0.458042 -0.218451,0.281872 -0.218451,0.70468 0,0.613072 0.443948,0.937225 0.450996,0.317106 1.141582,0.317106 z M 66.537816,4.6966696 V 6.9516468 H 60.019522 V 4.6966696 Z M 61.499351,2.1034458 H 64.50129 V 12.194469 q 0,0.415761 0.126842,0.648306 0.126843,0.225498 0.35234,0.317106 0.232545,0.09161 0.535557,0.09161 0.211405,0 0.422809,-0.03523 0.211404,-0.04228 0.324153,-0.06342 l 0.472136,2.233837 q -0.225498,0.07047 -0.634213,0.162076 -0.408714,0.09866 -0.993599,0.119796 -1.085208,0.04228 -1.902637,-0.288919 -0.810383,-0.3312 -1.261378,-1.028833 -0.450996,-0.697634 -0.443949,-1.761701 z M 73.309795,15.731964 q -1.670093,0 -2.875096,-0.676493 -1.197957,-0.68354 -1.846263,-1.930824 -0.648306,-1.254331 -0.648306,-2.966704 0,-1.670093 0.648306,-2.9314708 0.648306,-1.2613779 1.825122,-1.9660583 1.183863,-0.7046804 2.776441,-0.7046804 1.071114,0 1.994245,0.3452934 0.930179,0.3382466 1.620765,1.0217865 0.697634,0.68354 1.085208,1.7194202 0.387574,1.0288333 0.387574,2.4100064 v 0.824477 H 69.138087 V 9.0163603 h 6.313936 q 0,-0.6483059 -0.281872,-1.148629 -0.281872,-0.5003231 -0.782195,-0.7821952 -0.493277,-0.288919 -1.148629,-0.288919 -0.68354,0 -1.212051,0.3171062 -0.521463,0.3100594 -0.817429,0.8385696 -0.295966,0.5214635 -0.303013,1.1627227 v 1.7687474 q 0,0.803336 0.295966,1.388221 0.303013,0.584884 0.852663,0.901991 0.549651,0.317106 1.303659,0.317106 0.500323,0 0.916085,-0.140936 0.415761,-0.140936 0.711727,-0.422809 0.295966,-0.281872 0.450995,-0.690586 l 2.776441,0.183217 q -0.211404,1.000646 -0.866757,1.747607 -0.648306,0.739914 -1.677139,1.155676 -1.021787,0.408714 -2.360679,0.408714 z M 84.838374,15.52056 V 4.6966696 h 3.001938 V 15.52056 Z M 86.34639,3.3014024 q -0.669447,0 -1.148629,-0.4439486 -0.472136,-0.4509955 -0.472136,-1.078161 0,-0.6201187 0.472136,-1.06406739 0.479182,-0.45099544 1.148629,-0.45099544 0.669446,0 1.141582,0.45099544 0.479183,0.44394869 0.479183,1.06406739 0,0.6271655 -0.479183,1.078161 -0.472136,0.4439486 -1.141582,0.4439486 z m 6.891765,5.9615961 V 15.52056 H 90.236216 V 4.6966696 h 2.861003 v 1.9096838 h 0.126842 q 0.359387,-0.9442717 1.205003,-1.4939224 0.845617,-0.5566975 2.05062,-0.5566975 1.127489,0 1.966059,0.4932763 0.838569,0.4932762 1.303658,1.4093607 0.465089,0.9090377 0.465089,2.1704156 V 15.52056 H 97.212552 V 9.1643432 q 0.007,-0.9935993 -0.50737,-1.5502968 -0.514417,-0.5637443 -1.416407,-0.5637443 -0.606026,0 -1.071115,0.2607317 -0.458042,0.2607317 -0.718774,0.7610548 -0.253685,0.4932763 -0.260731,1.1909099 z m 14.600975,0.4721358 q 0,-2.621411 0.69763,-4.8270606 0.70468,-2.2056496 2.14928,-4.08714623 h 2.86805 q -0.54965,0.69763363 -1.02179,1.70532653 -0.47214,1.0006461 -0.82448,2.1986028 -0.35234,1.1979566 -0.54965,2.4804749 -0.19731,1.2754715 -0.19731,2.5298026 0,1.6700927 0.33825,3.3754187 0.34529,1.69828 0.93018,3.156968 0.59193,1.458689 1.3248,2.388867 h -2.86805 q -1.4446,-1.881497 -2.14928,-4.087146 -0.69763,-2.20565 -0.69763,-4.8341077 z M 118.29657,1.088706 V 15.52056 h -3.00194 V 1.088706 Z m 2.3959,14.431854 V 4.6966696 h 3.00194 V 15.52056 Z m 1.50802,-12.2191576 q -0.66945,0 -1.14863,-0.4439486 -0.47214,-0.4509955 -0.47214,-1.078161 0,-0.6201187 0.47214,-1.06406739 0.47918,-0.45099544 1.14863,-0.45099544 0.66944,0 1.14158,0.45099544 0.47918,0.44394869 0.47918,1.06406739 0,0.6271655 -0.47918,1.078161 -0.47214,0.4439486 -1.14158,0.4439486 z m 9.64706,1.3952672 v 2.2549772 h -6.51829 V 4.6966696 Z m -5.03846,-2.5932238 h 3.00193 V 12.194469 q 0,0.415761 0.12685,0.648306 0.12684,0.225498 0.35234,0.317106 0.23254,0.09161 0.53555,0.09161 0.21141,0 0.42281,-0.03523 0.21141,-0.04228 0.32415,-0.06342 l 0.47214,2.233837 q -0.2255,0.07047 -0.63421,0.162076 -0.40872,0.09866 -0.9936,0.119796 -1.08521,0.04228 -1.90264,-0.288919 -0.81038,-0.3312 -1.26138,-1.028833 -0.45099,-0.697634 -0.44394,-1.761701 z m 11.81044,13.6285182 q -1.67009,0 -2.87509,-0.676493 -1.19796,-0.68354 -1.84627,-1.930824 -0.6483,-1.254331 -0.6483,-2.966704 0,-1.670093 0.6483,-2.9314708 0.64831,-1.2613779 1.82513,-1.9660583 1.18386,-0.7046804 2.77644,-0.7046804 1.07111,0 1.99424,0.3452934 0.93018,0.3382466 1.62077,1.0217865 0.69763,0.68354 1.08521,1.7194202 0.38757,1.0288333 0.38757,2.4100064 v 0.824477 h -9.13971 V 9.0163603 h 6.31394 q 0,-0.6483059 -0.28187,-1.148629 -0.28187,-0.5003231 -0.7822,-0.7821952 -0.49327,-0.288919 -1.14863,-0.288919 -0.68354,0 -1.21205,0.3171062 -0.52146,0.3100594 -0.81742,0.8385696 -0.29597,0.5214635 -0.30302,1.1627227 v 1.7687474 q 0,0.803336 0.29597,1.388221 0.30301,0.584884 0.85266,0.901991 0.54965,0.317106 1.30366,0.317106 0.50032,0 0.91608,-0.140936 0.41577,-0.140936 0.71173,-0.422809 0.29597,-0.281872 0.451,-0.690586 l 2.77644,0.183217 q -0.21141,1.000646 -0.86676,1.747607 -0.6483,0.739914 -1.67714,1.155676 -1.02178,0.408714 -2.36068,0.408714 z m 6.927,-0.211404 V 4.6966696 h 2.91033 V 6.585213 h 0.11275 q 0.29597,-1.0076929 0.9936,-1.5221096 0.69764,-0.5214635 1.60667,-0.5214635 0.2255,0 0.48623,0.028187 0.26073,0.028187 0.45805,0.077515 v 2.6636918 q -0.21141,-0.063421 -0.58489,-0.1127489 -0.37348,-0.049328 -0.68354,-0.049328 -0.6624,0 -1.18386,0.288919 -0.51442,0.2818721 -0.81743,0.789242 -0.29597,0.5073699 -0.29597,1.1697694 V 15.52056 Z m 10.89295,0.204358 q -1.03588,0 -1.84627,-0.359387 -0.81038,-0.366434 -1.28251,-1.078161 -0.46509,-0.718774 -0.46509,-1.789889 0,-0.90199 0.3312,-1.515062 0.3312,-0.613072 0.90199,-0.9865529 0.57079,-0.3734806 1.29661,-0.5637443 0.73287,-0.1902637 1.5362,-0.2677786 0.94427,-0.098655 1.52211,-0.1832169 0.57784,-0.091608 0.83857,-0.2677785 0.26073,-0.1761701 0.26073,-0.5214635 v -0.042281 q 0,-0.6694464 -0.4228,-1.0358802 -0.41577,-0.3664338 -1.18387,-0.3664338 -0.81038,0 -1.28956,0.359387 -0.47919,0.3523402 -0.63422,0.8878973 L 153.22613,7.769076 q 0.21141,-0.9865525 0.83153,-1.7053265 0.62012,-0.7258208 1.59962,-1.113395 0.98655,-0.394621 2.28317,-0.394621 0.90199,0 1.72646,0.2114041 0.83153,0.2114041 1.47278,0.6553528 0.64831,0.4439486 1.02179,1.1415822 0.37348,0.6905868 0.37348,1.6559989 V 15.52056 h -2.84691 v -1.500969 h -0.0846 q -0.26073,0.50737 -0.69763,0.894944 -0.4369,0.380528 -1.04998,0.598978 -0.61307,0.211405 -1.4164,0.211405 z m 0.85971,-2.071761 q 0.6624,0 1.16977,-0.260731 0.50737,-0.267779 0.79628,-0.718774 0.28892,-0.450996 0.28892,-1.021787 v -1.148629 q -0.14093,0.09161 -0.38757,0.169123 -0.23959,0.07047 -0.5426,0.13389 -0.30302,0.05637 -0.60603,0.105702 -0.30301,0.04228 -0.54965,0.07751 -0.52851,0.07752 -0.92313,0.246639 -0.39462,0.169123 -0.61307,0.458042 -0.21845,0.281872 -0.21845,0.70468 0,0.613072 0.44394,0.937225 0.451,0.317106 1.14159,0.317106 z M 167.8694,1.088706 V 15.52056 h -3.00194 V 1.088706 Z m 5.39784,0 V 15.52056 H 170.2653 V 1.088706 Z m 4.24921,18.490813 q -0.57079,0 -1.07111,-0.09161 -0.49328,-0.08456 -0.81743,-0.218451 l 0.67649,-2.240884 q 0.52851,0.162077 0.95132,0.17617 0.42985,0.01409 0.73991,-0.19731 0.31711,-0.211404 0.51442,-0.718774 l 0.17617,-0.458042 -3.88279,-11.1339504 h 3.15697 l 2.24088,7.9487944 h 0.11275 l 2.26203,-7.9487944 h 3.1781 L 181.54722,16.69033 q -0.30301,0.873803 -0.82447,1.522109 -0.51442,0.655353 -1.30366,1.007693 -0.78924,0.359387 -1.90264,0.359387 z m 14.83352,-9.8443847 q 0,2.6284577 -0.70468,4.8341077 -0.69763,2.205649 -2.14222,4.087146 h -2.86805 q 0.54965,-0.697634 1.02178,-1.705327 0.47214,-1.007693 0.82448,-2.198602 0.35234,-1.197957 0.54965,-2.480475 0.19731,-1.282519 0.19731,-2.5368497 0,-1.6700925 -0.34529,-3.3683722 -0.33825,-1.7053265 -0.93018,-3.1569681 -0.58489,-1.4586884 -1.31775,-2.38886653 h 2.86805 q 1.44459,1.88149663 2.14222,4.08714623 0.70468,2.2056496 0.70468,4.8270606 z m 7.65987,5.7854257 V 4.6966696 h 2.861 v 1.9096838 h 0.12684 q 0.33825,-0.9513185 1.12749,-1.5009692 0.78924,-0.5496507 1.88854,-0.5496507 1.1134,0 1.89559,0.5566975 0.7822,0.5496507 1.04293,1.4939224 h 0.11275 q 0.3312,-0.9301781 1.19796,-1.4868756 0.8738,-0.5637443 2.06471,-0.5637443 1.51506,0 2.45933,0.9654121 0.95132,0.9583653 0.95132,2.7200663 V 15.52056 h -2.99489 V 8.8331434 q 0,-0.9019909 -0.47918,-1.3529863 -0.47918,-0.4509955 -1.19796,-0.4509955 -0.81743,0 -1.27547,0.5214635 -0.45804,0.5144167 -0.45804,1.3600332 V 15.52056 h -2.91033 V 8.7697222 q 0,-0.7962888 -0.45804,-1.2684247 -0.451,-0.4721359 -1.19091,-0.4721359 -0.50033,0 -0.90199,0.253685 -0.39463,0.2466381 -0.62717,0.6976336 -0.23254,0.4439486 -0.23254,1.0429269 V 15.52056 Z m 18.09619,0 V 4.6966696 h 3.00194 V 15.52056 Z m 1.50801,-12.2191576 q -0.66944,0 -1.14862,-0.4439486 -0.47214,-0.4509955 -0.47214,-1.078161 0,-0.6201187 0.47214,-1.06406739 0.47918,-0.45099544 1.14862,-0.45099544 0.66945,0 1.14159,0.45099544 0.47918,0.44394869 0.47918,1.06406739 0,0.6271655 -0.47918,1.078161 -0.47214,0.4439486 -1.14159,0.4439486 z m 6.89177,5.9615961 V 15.52056 h -3.00194 V 4.6966696 h 2.861 v 1.9096838 h 0.12685 q 0.35938,-0.9442717 1.205,-1.4939224 0.84562,-0.5566975 2.05062,-0.5566975 1.12749,0 1.96606,0.4932763 0.83857,0.4932762 1.30366,1.4093607 0.46508,0.9090377 0.46508,2.1704156 V 15.52056 h -3.00193 V 9.1643432 q 0.007,-0.9935993 -0.50737,-1.5502968 -0.51442,-0.5637443 -1.41641,-0.5637443 -0.60603,0 -1.07112,0.2607317 -0.45804,0.2607317 -0.71877,0.7610548 -0.25368,0.4932763 -0.26073,1.1909099 z m 16.27811,1.6489525 V 4.6966696 h 3.00193 V 15.52056 h -2.88214 v -1.966058 h -0.11275 q -0.36643,0.951319 -1.21909,1.529156 -0.84562,0.577838 -2.06472,0.577838 -1.08521,0 -1.90968,-0.493276 -0.82448,-0.493276 -1.28957,-1.402314 -0.45804,-0.909038 -0.46509,-2.177462 V 4.6966696 h 3.00194 v 6.3562174 q 0.007,0.958365 0.51442,1.515062 0.50737,0.556698 1.36003,0.556698 0.54261,0 1.01474,-0.246638 0.47214,-0.253685 0.76106,-0.746961 0.29596,-0.493277 0.28892,-1.219097 z M 253.939,4.6966696 v 2.2549772 h -6.5183 V 4.6966696 Z m -5.03847,-2.5932238 h 3.00194 V 12.194469 q 0,0.415761 0.12684,0.648306 0.12684,0.225498 0.35234,0.317106 0.23255,0.09161 0.53556,0.09161 0.2114,0 0.42281,-0.03523 0.2114,-0.04228 0.32415,-0.06342 l 0.47214,2.233837 q -0.2255,0.07047 -0.63422,0.162076 -0.40871,0.09866 -0.99359,0.119796 -1.08521,0.04228 -1.90264,-0.288919 -0.81038,-0.3312 -1.26138,-1.028833 -0.451,-0.697634 -0.44395,-1.761701 z m 11.81044,13.6285182 q -1.67009,0 -2.87509,-0.676493 -1.19796,-0.68354 -1.84627,-1.930824 -0.6483,-1.254331 -0.6483,-2.966704 0,-1.670093 0.6483,-2.9314708 0.64831,-1.2613779 1.82512,-1.9660583 1.18387,-0.7046804 2.77645,-0.7046804 1.07111,0 1.99424,0.3452934 0.93018,0.3382466 1.62077,1.0217865 0.69763,0.68354 1.0852,1.7194202 0.38758,1.0288333 0.38758,2.4100064 v 0.824477 h -9.13971 V 9.0163603 h 6.31394 q 0,-0.6483059 -0.28187,-1.148629 -0.28187,-0.5003231 -0.7822,-0.7821952 -0.49327,-0.288919 -1.14863,-0.288919 -0.68354,0 -1.21205,0.3171062 -0.52146,0.3100594 -0.81743,0.8385696 -0.29596,0.5214635 -0.30301,1.1627227 v 1.7687474 q 0,0.803336 0.29597,1.388221 0.30301,0.584884 0.85266,0.901991 0.54965,0.317106 1.30366,0.317106 0.50032,0 0.91608,-0.140936 0.41576,-0.140936 0.71173,-0.422809 0.29597,-0.281872 0.451,-0.690586 l 2.77644,0.183217 q -0.21141,1.000646 -0.86676,1.747607 -0.64831,0.739914 -1.67714,1.155676 -1.02179,0.408714 -2.36068,0.408714 z m 15.93283,-7.9487943 -2.74826,0.1691232 q -0.0705,-0.3523401 -0.30301,-0.6342123 -0.23255,-0.288919 -0.61307,-0.4580422 -0.37348,-0.1761701 -0.89495,-0.1761701 -0.69763,0 -1.17681,0.2959657 -0.47919,0.288919 -0.47919,0.7751484 0,0.3875743 0.31006,0.6553528 0.31006,0.2677785 1.06407,0.429855 l 1.95901,0.394621 q 1.57849,0.324153 2.35364,1.0429268 0.77514,0.718774 0.77514,1.888544 0,1.064067 -0.62716,1.867403 -0.62012,0.803335 -1.70533,1.254331 -1.07816,0.443948 -2.48752,0.443948 -2.14928,0 -3.42475,-0.894944 -1.26842,-0.901991 -1.48687,-2.452287 l 2.95261,-0.15503 q 0.13389,0.655353 0.6483,1.000646 0.51442,0.338247 1.31776,0.338247 0.78924,0 1.26842,-0.303013 0.48623,-0.310059 0.49328,-0.796289 -0.007,-0.408714 -0.3453,-0.669446 -0.33824,-0.267779 -1.04292,-0.408715 l -1.87445,-0.37348 q -1.58553,-0.317107 -2.36068,-1.0993018 -0.7681,-0.7821952 -0.7681,-1.9942455 0,-1.0429269 0.56374,-1.7969349 0.57079,-0.7540081 1.59963,-1.1627227 1.03588,-0.4087146 2.4241,-0.4087146 2.05062,0 3.22743,0.8667569 1.18386,0.8667568 1.38118,2.3606793 z"
       id="text1"
       aria-label="Create in (literally) minutes" />
  </g>
</svg>
